<?xml version="1.0" encoding="UTF-8"?>
<svg xmlns="http://www.w3.org/2000/svg" xmlns:xlink="http://www.w3.org/1999/xlink"
     viewBox="0 0 195 80.69"
     aria-label="KBase logo mark">
  <defs>
    <clipPath id="km-cp1">
      <path fill="none" d="M68.29,69.42a40.31,40.31,0,0,1,0-58.15h0a40.35,40.35,0,1,0,0,58.15Z"/>
    </clipPath>
    <clipPath id="km-cp2">
      <path fill="none" d="M111.8,40.34a40.22,40.22,0,0,1,12.39-29.07,40.29,40.29,0,0,0-55.9,0,40.29,40.29,0,0,1,0,58.15,40.29,40.29,0,0,0,55.9,0A40.23,40.23,0,0,1,111.8,40.34Z"/>
    </clipPath>
    <clipPath id="km-cp3">
      <path fill="none" d="M152.14,0a40.17,40.17,0,0,0-27.95,11.27,40.31,40.31,0,0,1,0,58.15A40.34,40.34,0,1,0,152.14,0Z"/>
    </clipPath>
  </defs>

  <!-- Base circles -->
  <path fill="#72ccd2" d="M152.14,0a40.17,40.17,0,0,0-27.95,11.27,40.31,40.31,0,0,1,0,58.15A40.34,40.34,0,1,0,152.14,0Z"/>
  <path fill="#c7d13e" d="M111.8,40.34a40.22,40.22,0,0,1,12.39-29.07,40.29,40.29,0,0,0-55.9,0,40.29,40.29,0,0,1,0,58.15,40.29,40.29,0,0,0,55.9,0A40.23,40.23,0,0,1,111.8,40.34Z"/>
  <path fill="#ffd200" d="M68.29,69.42a40.31,40.31,0,0,1,0-58.15h0a40.35,40.35,0,1,0,0,58.15Z"/>

  <!-- Orange DNA strand (left circle clip) -->
  <g clip-path="url(#km-cp1)">
    <path fill="none" stroke="#f78e1e" stroke-miterlimit="10" stroke-width="1.83" d="M42-12.65C39.75-7.48,45.6,2.79,47,8.1,49.12,16.31,47.35,22,39,25.29c-6.6,2.59-16.2,4.15-18.2,12.12-2.24,8.94,6.64,16.08,7.84,24.29C31.22,79.11.12,76-5.7,87.76"/>
    <path fill="none" stroke="#f78e1e" stroke-miterlimit="10" stroke-width="1.83" d="M55.61-7.29C53.75-2,42.47,1.55,37.83,4.5c-7.16,4.55-9.76,9.94-5.9,18C35,28.89,41,36.57,37,43.76,32.53,51.84,21.17,51,14.7,56.19,1,67.21,25.87,86.11,22.1,98.7"/>
    <path fill="#f78e1e" d="M16.88,41a6.15,6.15,0,0,1-7.74-4h0a6.16,6.16,0,0,1,4-7.74l25.08-8a6.17,6.17,0,0,1,7.74,4h0A6.17,6.17,0,0,1,42,33Z"/>
    <path fill="#f78e1e" d="M29,41.89a6.16,6.16,0,0,1-1.52-8.58h0A6.17,6.17,0,0,1,36.1,31.8L57.67,46.89a6.15,6.15,0,0,1,1.52,8.57h0A6.16,6.16,0,0,1,50.61,57Z"/>
    <circle fill="#f78e1e" cx="41.52" cy="71.59" r="5.33"/>
    <path fill="#f78e1e" d="M40.81,66.81a2.6,2.6,0,1,1-2.6-2.6A2.59,2.59,0,0,1,40.81,66.81Z"/>
    <circle fill="#f78e1e" cx="45.01" cy="66.26" r="6.8"/>
    <path fill="#f78e1e" d="M46.31,18.81a7.11,7.11,0,1,1,8.76-4.95A7.12,7.12,0,0,1,46.31,18.81Z"/>
  </g>

  <!-- Green plant details (middle overlap clip) -->
  <g clip-path="url(#km-cp2)">
    <path fill="#5e9732" d="M93.29,94.56A64.48,64.48,0,0,0,98.55,69.2C98.54,43,84,16.83,80.7,17.39,96.51,43.45,96,67.13,92.53,94.23"/>
    <path fill="#5e9732" d="M92.83,94.11a31.12,31.12,0,0,0,1-11.64c-1.21-11.86-8.43-23.26-9.77-22.9,7.74,11.3,8.59,22.23,8.4,34.61"/>
    <path fill="#5e9732" d="M92.46,94.49c.27-12.18,4.79-29.37,7.78-37.5,2.78-7.81,16.13-34,17.11-33.35C99,57.37,94.89,93,95.55,95"/>
    <path fill="#5e9732" d="M93.7,94a115.74,115.74,0,0,1-.79-29c2.93-28.95,15.84-55.3,18-54.1-13.76,26-16.06,52.27-16.69,82.88"/>
    <path fill="#5e9732" d="M93.09,94.52c1.18-13.53,0-33.35-1.16-42.89-1-9.13-7.28-40.47-8-40,8.85,40.62,7.68,80.74,7,82.81"/>
    <path fill="#5e9732" d="M92.17,94.45c1.18-13.53,3.68-29.75,3.68-40.52,0-14.54-3.16-38.36-2.91-38.55,8.85,40.62,1.53,77.09.86,79.15"/>
  </g>

  <!-- Blue microorganism details (right circle clip) -->
  <g clip-path="url(#km-cp3)">
    <path fill="#007dc3" d="M160.43,61.15c1,.79,2.15.63,3.21,1.72.66.68,2,2.44,1.93,3.41,0,.63-.84,1.25-1.08,1.84s-.19,1.39-.47,2.1c-.49,1.24-1.68,2.1-2.22,3.24a11.26,11.26,0,0,0-1.2,3.76c-.16,1.79.54,2.07,2.4,1.49s1.74-1.55,1.88-2.87a.5.5,0,0,1-.32,0c-.27-2.3,4.78-4.4,6.42-5.31,2.62-1.47,3.67-3.89,5.9-5.56,1.23-.92,2.47-1.43,3.34-2.81s.66-2.84,1.37-4.24c.46-.92,2.07-2.17,2.09-3.08,0-1.47-2.58-1.88-3.76-2-2.16-.33-3.25.85-3.76-1.71s-1-2.13-3.42-3c-1.68-.55-2.89-2.32-4.44-2.7a13,13,0,0,0-2.57,0c-.72,0-1.78-.68-1.56.87-.44-.14-.82-.77-1.17-.84a10.4,10.4,0,0,0-2,.14,14.07,14.07,0,0,1-3.8-.64c-2.06-.58-.84-1.21-1.7-2.75-.61-1.08-2.6-1.6-3.74-1.55.1-1.13.39-2.54-1.22-2.54-1.12,0-2,1.88-3.21,1.5-1-.29-2.13-2.52-2.3-3.38a4.52,4.52,0,0,1,1.23-3.94c1-.88,2.66-.8,3.94-.85,1,0,3-.55,3.76-.35,1.54.4,1.05,1.87,1.66,3a4.07,4.07,0,0,0,2.75,2c.38-1.39-1.62-2.59-2-3.92-.44-1.66.44-1.32,1.88-2s1.18-1.33,1.83-2.6,3-1.61,3.28-2.71c1.57-.13,1.51-2,3.2-2.06.18,1.63,2.93.43,2.9-.68-1.66.07-2.42-.17-2.05-1.88-.66,0-1.35,0-2-.06,1.39-2,4.14.78,5.77-.6a4,4,0,0,1-.46,1.62,9,9,0,0,0,3.71.87c.19-1-.35-1.3-1-1.91-.25-.26-.79-.1-1-.33s-.25-.73-.5-1c-1.21-1.26-1.94-1.2-3.47-2s-.94-2.33-2.56-2.78c-.67-.19-1.15.27-1.75,0s-1.2-1-1.8-1.28c-.93-.47-3.34-1.33-3.81,0-.26.77.63,1.27.86,1.85.44,1.09.43.65,0,1.63-.51,1.3-1.38,2.27-2.81,1.54-1.59-.82-2.71-2-4.58-2.58-2.33-.79-6-2.82-1.7-3.79a22.09,22.09,0,0,0,3.8-.82c.53-.23.78-.85,1.49-1.11a6.76,6.76,0,0,1,2.54-.1c.47,1.23,3,1.12,4.13,1.13,2.11,0,3.59-1.34.68-2.06-2.7-.67-6.31-1.38-9.05-1-.71.11-1.3.43-2.05.51s-1.85-.24-2.56.18-.41.85-1,1.53c-.82.89-1.67.81-2.75,1-4.09.8-8.13-.61-12.1.73-2.55.86-5.86.58-7.76,2.3-1.07,1-1.88,2.12-3,3-.94.74-1.75,3.55-1.75,3.55,1.37-2,4-1.79,6.13-1.68.29,1.14,1,1,1.73,1.56s1,1.31,1.68,1.69c-.64,2.67.21,7.29,2.3,9.37,1.48,1.48,2.33,1.3,3,3.25.5,1.41,1.15,3.38,2.29,4.3.31-1.37-.51-2-1.14-3.07a11.11,11.11,0,0,1-1-3.22c.67,1.4,2.09,1.93,3.12,3,1.25,1.32.59,2.75,1.51,4.1s2.9,1.06,4.26,1.76c.69.35,1,1,1.71,1.16s1.62-.46,2.37-.49c1,1.67,3.1,1,4.47,1.84s1.27,3.87,3.73,3.46c.41,1.21,1.75.43,2.57.16.22,2.67-1.26,3.14-2.16,5.28C157,54.07,159.93,60.77,160.43,61.15Z"/>
    <path fill="#007dc3" d="M133.46,9.68c-.44.26-1.3.84-1.39,1.39,1.36-.2,2.4-1.52,3.94-1.31a4.35,4.35,0,0,0,1.87.05,5.4,5.4,0,0,1,2.08,0c.73.08,1.39-.23,2.07-.06s1.22.44,1.82.11c1-.55-.23-.86-.51-1.25-.12-.17-.09-.49-.24-.6a1.5,1.5,0,0,0-.84,0,8.73,8.73,0,0,0-1.56.54,16.05,16.05,0,0,1-2.44.59c0-.74,2.23-1.12,2.78-1.24.77-.17,1.09-.5.07-.56,0-.72-.32-1-1.1-.84a26.24,26.24,0,0,0-3.62,1.4,5.62,5.62,0,0,0-2.19,1.44,4.16,4.16,0,0,1-1.39.86"/>
    <path fill="#007dc3" d="M162,6.73a.94.94,0,0,1,1.16.36c.21.33.17.52.57.69a2.53,2.53,0,0,0,1.06.1c1.61,0,3.38-.06,4.84.8a14.6,14.6,0,0,1,1.63,1.05,4.41,4.41,0,0,0,.71.54,12.36,12.36,0,0,1,1.23.54,1.75,1.75,0,0,1,.53,1.52c-.15.3-.78.26-1.15.25-.22.81,1.74,1.68,2.2,2a13.52,13.52,0,0,1,2.29,1.9c.72.69,1,.54,1.59-.24.46-.61.8-.91,1.57-.8s1,.14,1.53-.4c.32-.35.9-.83.72-1.35-.12-.35-.65-.62-.93-.85-.55-.47-1.09-1-1.63-1.45a18.4,18.4,0,0,0-4.36-2.82c-1-.5-1.95-1.27-3-1.71a11.13,11.13,0,0,0-3.82-.5,8.11,8.11,0,0,1-2.91-.68,18.29,18.29,0,0,0-2.6-.38,15.44,15.44,0,0,0-3.84-.43c-1.51,0-3.05-.23-4.56-.16a10.83,10.83,0,0,0-1.68.41,11.93,11.93,0,0,1-1.79.09,4.93,4.93,0,0,0-2.1.27c-.25.16-.28.44-.56.6s-1.63,0-1.63.53c.67,0,1.32-.35,2-.25a3.76,3.76,0,0,0,1.84.15,10,10,0,0,1,2.2-.55c.79,0,1.61-.1,2.39-.1s1.61.22,2.42.25a7.82,7.82,0,0,0,1.28,0,6.89,6.89,0,0,1,1.25-.24c.38,0,.31.16.64.35a2.52,2.52,0,0,0,1.36.2c.61,0,.93,0,.74.65"/>
    <path fill="#007dc3" d="M190.25,35c-.33.26-.05,1-.16,1.42-.23.78.38,1.22.38,2a21.26,21.26,0,0,0,.15,2.26c.11,1,.7,1.89.41,2.84-.21.68.22,1.23.25,2a1.75,1.75,0,0,0,.19,1c.05.07.49.36.6.31.37-.14.35-1.37.39-1.7.26-2,1-4.06,1-6.13,0-1.16-.56-1.61-1-2.6a13.58,13.58,0,0,0-1.26-1.63"/>
    <path fill="#007dc3" d="M155.78,36.83c-.26-.2-1.57,1,0,.51a3.51,3.51,0,0,1,2.22.3c.46.19,1.79.24,2,.74.09.17-.12.46,0,.6s1.05.21,1.29.1.62-.54.55-.84-.66-.41-.94-.52c-.6-.22-1.11-.81-1.72-.92-.3-.06-.58.1-.85.08s-.75-.27-1.18-.3a6.34,6.34,0,0,0-1.25-.15c-.27.09-.26.25-.4.45"/>
    <path fill="#007dc3" d="M159.62,39.73c-.08-.07-.12-.13-.24-.09-.14.64,1,.81,1,.24,0-.33-.82-.43-1-.25"/>
    <path fill="#007dc3" d="M163.46,38.18c-.16.12-.52.32-.6.51-.16.45.19.18.24.49.11.59-.74.2-.82.61-.16.7,1.17.24,1.33.25.51,0,.6.41,1.25.13.23-.1.28-.21.55-.24s.4.1.49,0c.58-.43-.59-.91-.83-1a4,4,0,0,0-1-.5c-.14,0-.35,0-.5-.09s-.13-.26-.4-.11"/>
  </g>

  <!-- Overlapping lens shapes on top -->
  <path fill="#72ccd2" d="M111.79,40.39a40.2,40.2,0,0,0,12.4,29.08,40.32,40.32,0,0,0,0-58.16A40.2,40.2,0,0,0,111.79,40.39Z"/>
  <ellipse fill="#bba800" cx="68.29" cy="40.39" rx="12.4" ry="29.08"/>
  <path fill="#5ba8b4" d="M111.79,40.39a40.2,40.2,0,0,0,12.4,29.08,40.32,40.32,0,0,0,0-58.16A40.2,40.2,0,0,0,111.79,40.39Z"/>
</svg>
